<svg id="unknown" xmlns="http://www.w3.org/2000/svg" xmlns:xlink="http://www.w3.org/1999/xlink" viewBox="0 0 100 100"><style>.st0{fill:#f5eee5}.st1{fill:#e6c19c}.st2{clip-path:url(#SVGID_2_);fill:#d4b08c}.st3{fill:#f2cea5}</style><path class="st0" d="M0 0h100v100H0z"/><path id="shoulders" class="st1" d="M63 71.9c0 4 4.7 5.2 7.1 5.8 7.6 2 22.8 5.9 22.8 5.9 3.2 1.1 5.7 3.5 7.1 6.6v9.8H0v-9.8c1.3-3.1 3.9-5.5 7.1-6.6 0 0 15.2-3.9 22.8-5.9 2.4-.6 7.1-1.8 7.1-5.8V61h26v10.9z"/><defs><path id="SVGID_1_" d="M63 71.9c0 4 4.7 5.2 7.1 5.8 7.6 2 22.8 5.9 22.8 5.9 3.2 1.1 5.7 3.5 7.1 6.6v9.8H0v-9.8c1.3-3.1 3.9-5.5 7.1-6.6 0 0 15.2-3.9 22.8-5.9 2.4-.6 7.1-1.8 7.1-5.8V61h26v10.9z"/></defs><clipPath id="SVGID_2_"><use xlink:href="#SVGID_1_" overflow="visible"/></clipPath><path id="head-shadow" class="st2" d="M50.2 11h.2c3.3 0 8.2.2 11.4 2 3.3 1.9 7.3 5.6 8.5 12.1 2.4 13.7-2.1 35.4-6.3 42.4-4 6.7-9.8 9.2-13.5 9.4h-.6c-3.7-.2-9.5-2.7-13.5-9.4-4.2-7-8.7-28.7-6.3-42.4 1.2-6.5 5.2-10.2 8.5-12.1 3.2-1.8 8.1-2 11.4-2h.2z"/><path id="head" class="st3" d="M49.6 16c19.1 0 20.7 13.8 20.8 15.1 1.1 11.9-3 28.1-6.8 33.7-4 5.9-9.8 8.1-13.5 8.3h-.5c-3.8-.3-9.6-2.5-13.6-8.4-3.8-5.6-7.9-21.8-6.8-33.8.1-1.2 1.3-14.9 20.4-14.9z"/></svg>